<?xml version="1.0" standalone="no"?><!-- Generator: Gravit.io --><svg xmlns="http://www.w3.org/2000/svg" xmlns:xlink="http://www.w3.org/1999/xlink" style="isolation:isolate" viewBox="0 0 1000 600" width="1000" height="600"><defs><clipPath id="_clipPath_XI7xUlib2eRemgvGm5bMP7nFgUwc1Utq"><rect width="1000" height="600"/></clipPath></defs><g clip-path="url(#_clipPath_XI7xUlib2eRemgvGm5bMP7nFgUwc1Utq)"><path d=" M 322.458 120.926 L 474.711 120.926 Q 478.067 110.517 474.711 106.997 C 471.356 103.477 444.314 87.982 444.956 57.448 C 445.686 22.723 479.002 6.864 498.516 7.855 C 518.03 8.845 549.378 18.91 552.076 57.448 C 554.433 91.122 524.6 99.89 522.813 108.981 Q 521.025 118.071 524.304 120.926 L 677.542 120.926 L 677.542 281.606 Q 669.267 289.298 658.545 281.606 C 647.823 273.915 640.677 256.56 614.903 257.802 C 589.13 259.044 574.911 280.786 575.229 299.46 C 575.547 318.133 589.717 340.407 614.903 341.118 C 640.09 341.828 649.438 322.936 658.545 315.329 Q 667.651 307.723 677.542 317.313 L 677.542 477.993 L 523.312 477.993 Q 519.312 489.648 526.288 493.863 C 533.264 498.078 551.169 514.477 552.076 539.488 C 552.899 562.186 537.61 592.382 498.516 593.048 C 466.442 593.595 444.687 565.73 444.956 539.488 C 445.224 513.247 464.24 497.679 470.744 493.863 Q 477.248 490.047 473.719 477.993 L 322.458 477.993 L 322.458 317.313 Q 324.582 314.213 336.59 317.313 C 348.597 320.413 353.371 340.605 380.231 341.118 C 407.092 341.63 421.862 321.78 422.829 300.399 C 423.795 279.019 406.162 258.094 381.171 258.741 C 356.179 259.388 344.954 279.034 337.529 282.546 Q 330.105 286.058 322.458 281.606 L 322.458 120.926 Z " fill="rgb(255,255,255)" vector-effect="non-scaling-stroke" stroke-width="1" stroke="rgb(0,0,0)" stroke-linejoin="miter" stroke-linecap="square" stroke-miterlimit="3"/><path d=" M 677.542 143.866 L 818.385 143.866 Q 820.865 152.002 814.418 158.573 C 807.97 165.144 790.613 172.831 790.613 196.264 C 790.613 219.696 807.97 237.798 830.287 237.922 C 852.604 238.046 874.425 219.2 873.929 196.264 C 873.433 173.327 856.571 162.913 850.124 158.573 Q 843.677 154.234 846.157 143.866 L 987 143.866 L 987 455.053 L 846.157 455.053 Q 842.437 447.575 850.124 440.26 C 857.811 432.945 872.937 428.977 873.929 402.569 C 874.921 376.161 853.348 361.283 830.287 360.911 C 807.227 360.539 789.621 383.848 790.613 402.569 C 791.605 421.29 804.003 435.92 814.418 440.26 Q 824.832 444.599 818.385 455.053 L 677.542 455.053" fill="none" vector-effect="non-scaling-stroke" stroke-width="1" stroke="rgb(0,0,0)" stroke-linejoin="miter" stroke-linecap="square" stroke-miterlimit="3"/><path d=" M 322.458 143.866 L 181.615 143.866 Q 179.135 152.002 185.582 158.573 C 192.03 165.144 209.387 172.831 209.387 196.264 C 209.387 219.696 192.03 237.798 169.713 237.922 C 147.396 238.046 125.575 219.2 126.071 196.264 C 126.567 173.327 143.429 162.913 149.876 158.573 Q 156.323 154.234 153.843 143.866 L 13 143.866 L 13 455.053 L 153.843 455.053 Q 157.563 447.575 149.876 440.26 C 142.189 432.945 127.063 428.977 126.071 402.569 C 125.079 376.161 146.652 361.283 169.713 360.911 C 192.773 360.539 210.379 383.848 209.387 402.569 C 208.395 421.29 195.997 435.92 185.582 440.26 Q 175.168 444.599 181.615 455.053 L 322.458 455.053" fill="none" vector-effect="non-scaling-stroke" stroke-width="1" stroke="rgb(0,0,0)" stroke-linejoin="miter" stroke-linecap="square" stroke-miterlimit="3"/></g></svg>