<?xml version="1.0" encoding="utf-8"?>
<!-- Generator: Adobe Illustrator 17.0.0, SVG Export Plug-In . SVG Version: 6.00 Build 0)  -->
<!DOCTYPE svg PUBLIC "-//W3C//DTD SVG 1.1//EN" "http://www.w3.org/Graphics/SVG/1.1/DTD/svg11.dtd">
<svg version="1.1" id="Layer_1" xmlns="http://www.w3.org/2000/svg" xmlns:xlink="http://www.w3.org/1999/xlink" x="0px" y="0px"
	 width="1000px" height="1000px" viewBox="0 0 1000 1000" enable-background="new 0 0 1000 1000" xml:space="preserve">
<path fill="#369BC2" d="M494.412,586.026c-15.061,0-27.27,12.209-27.27,27.27c0,2.337,0.295,4.605,0.848,6.77l-52.37,31.786
	l14.721,19.978l50.05-35.143c4.098,2.462,8.894,3.88,14.022,3.88c15.061,0,27.27-12.209,27.27-27.27
	c0-1.795-0.178-3.548-0.509-5.246L758.75,456l-8.917-13.5L512.606,592.987C507.779,588.661,501.404,586.026,494.412,586.026z"/>
<rect x="480.024" y="302.236" fill="#369BC2" width="30.665" height="22.081"/>
<rect x="480.024" y="895.97" fill="#369BC2" width="30.665" height="22.081"/>
<rect x="781.183" y="594.811" fill="#369BC2" width="22.081" height="30.665"/>
<rect x="187.449" y="594.811" fill="#369BC2" width="22.081" height="30.665"/>
<rect x="630.876" y="336.893" transform="matrix(0.8832 0.4689 -0.4689 0.8832 237.2456 -256.9325)" fill="#369BC2" width="7.359" height="22.081"/>
<rect x="352.478" y="861.312" transform="matrix(-0.8832 -0.4689 0.4689 -0.8832 261.6635 1809.8585)" fill="#369BC2" width="7.359" height="22.081"/>
<rect x="746.525" y="745.662" transform="matrix(-0.8833 -0.4689 0.4689 -0.8833 1075.3268 1766.42)" fill="#369BC2" width="22.081" height="7.36"/>
<rect x="222.106" y="467.265" transform="matrix(0.8833 0.4689 -0.4689 0.8833 248.0447 -54.3405)" fill="#369BC2" width="22.081" height="7.359"/>
<rect x="237.057" y="751.743" transform="matrix(-0.5141 -0.8577 0.8577 -0.5141 -289.7366 1361.4399)" fill="#369BC2" width="7.36" height="22.081"/>
<rect x="636.956" y="861.083" transform="matrix(-0.5142 -0.8577 0.8577 -0.5142 239.4738 1865.1738)" fill="#369BC2" width="22.081" height="7.359"/>
<rect x="339.037" y="344.483" transform="matrix(0.8577 -0.5142 0.5142 0.8577 -134.0274 226.8111)" fill="#369BC2" width="7.359" height="22.081"/>
<g>
	<polygon fill="#369BC2" points="738.259,312.803 787.414,252.078 732.4,207.546 683.698,267.712 	"/>
	<polygon fill="#369BC2" points="292.87,267.995 243.939,207.546 188.925,252.078 237.411,311.977 	"/>
	<rect x="444.73" y="85.987" fill="#369BC2" width="103.045" height="113.846"/>
	<path fill="#369BC2" d="M814.051,475.695c-17.455-41.268-42.44-78.328-74.262-110.149c-10.325-10.325-21.204-19.925-32.597-28.786
		l16.52-20.409l-41.636-34.41l-20.217,24.976c-10.426-5.74-21.171-10.959-32.22-15.632c-29.869-12.633-61.034-20.908-93.064-24.749
		V233.31c40.452-16.643,69.008-56.476,69.008-102.859c0-61.301-49.872-111.173-111.172-111.173S383.24,69.15,383.24,130.45
		c0,48.531,31.261,89.892,74.702,105.021v30.498c-33.798,3.553-66.664,12.02-98.095,25.314
		c-14.256,6.03-28.009,12.959-41.219,20.758l-24.234-29.939l-42.322,33.563l22.246,27.483c-8.518,7.039-16.731,14.507-24.621,22.397
		c-31.822,31.821-56.807,68.881-74.262,110.149c-18.075,42.734-27.24,88.12-27.24,134.897c0,46.777,9.165,92.163,27.24,134.897
		c17.455,41.268,42.44,78.328,74.261,110.15c31.822,31.822,68.881,56.807,110.15,74.262c42.734,18.075,88.12,27.24,134.897,27.24
		c46.777,0,92.163-9.165,134.897-27.24c41.269-17.455,78.328-42.44,110.15-74.262s56.807-68.881,74.262-110.15
		c18.075-42.734,27.24-88.12,27.24-134.897C841.291,563.814,832.126,518.429,814.051,475.695z M391.826,130.45
		c0-56.566,46.02-102.586,102.586-102.586c56.566,0,102.586,46.02,102.586,102.586c0,41.547-24.826,77.404-60.422,93.517v-12.133
		h-78.635v14.498C419.329,211.595,391.826,174.177,391.826,130.45z M494.743,926.474c-174.178,0-315.883-141.705-315.883-315.883
		c0-174.178,141.704-315.883,315.883-315.883c174.178,0,315.883,141.704,315.883,315.883
		C810.626,784.77,668.922,926.474,494.743,926.474z"/>
</g>
</svg>
